<svg width="37" height="52" viewBox="0 0 37 52" fill="none" xmlns="http://www.w3.org/2000/svg">
<g opacity="0.9">
<path d="M23.8692 32.6297L20.8828 34.7676L29.8619 46.8415L32.8483 44.7036L23.8692 32.6297Z" fill="#04BC64"/>
<path d="M36.7654 49.2504L33.1307 51.8908C32.88 52.0794 32.6293 52.0166 32.4413 51.7651L25.1093 41.7063C24.9213 41.4548 24.984 41.2033 25.2346 41.0147L28.8693 38.3743C29.12 38.1857 29.3707 38.2486 29.5587 38.5L36.8907 48.6217C37.0787 48.8103 37.016 49.0618 36.7654 49.2504Z" fill="#00D97A"/>
<path opacity="0.6" d="M15 36.3021C21.0751 36.3021 26 31.0308 26 24.5285C26 18.0261 21.0751 12.7549 15 12.7549C8.92487 12.7549 4 18.0261 4 24.5285C4 31.0308 8.92487 36.3021 15 36.3021Z" fill="#FDFEFF"/>
<path d="M15 8.83032C6.68122 8.83032 0 15.4497 0 23.5473C0 31.7091 6.74673 38.2643 15 38.2643C23.2533 38.2643 30 31.7734 30 23.6116C30 15.4498 23.3188 8.83032 15 8.83032ZM15 35.051C8.58079 35.051 3.34061 29.9097 3.34061 23.6116C3.34061 17.3135 8.58079 12.1722 15 12.1722C21.4192 12.1722 26.6594 17.3135 26.6594 23.6116C26.6594 29.9097 21.4192 35.051 15 35.051Z" fill="#00D97A"/>
<path d="M13.893 26.9247L6.77288 18.7197C2.38214 13.6751 3.33149 5.77392 8.73092 2.00568C12.469 -0.668559 17.5124 -0.668559 21.2505 2.00568C26.7092 5.8347 27.5993 13.6751 23.2085 18.7197L16.1477 26.9247C15.5544 27.654 14.4864 27.654 13.893 26.9247Z" fill="#D90049"/>
<path d="M16 16.6785C19.3137 16.6785 22 13.8233 22 10.3012C22 6.77907 19.3137 3.92383 16 3.92383C12.6863 3.92383 10 6.77907 10 10.3012C10 13.8233 12.6863 16.6785 16 16.6785Z" fill="white"/>
</g>
</svg>
